<?xml version="1.0" encoding="UTF-8"?>
<svg id="_Слой_2" data-name="Слой 2" xmlns="http://www.w3.org/2000/svg" viewBox="0 0 1220 1220">
  <defs>
    <style>
      .cls-1 {
        fill: #ffaf23;
        stroke: #000;
        stroke-miterlimit: 10;
        stroke-width: 2px;
      }
    </style>
  </defs>
  <g id="_Слой_2-2" data-name="Слой 2">
    <rect class="cls-1" x="1" y="1" width="1218" height="1218" rx="277.02" ry="277.02"/>
    <path d="M877.79,869.91c4.14-.61,7.22-2.97,10.08-5.72,7.04-6.75,29.8-44.03,32.3-45.24,3.99-1.94,25.14-1.65,25.59,4.3.44,5.88-42.22,61.81-49.27,69.65-214.52,238.62-613.51,126.38-679.48-183.99-60.89-286.47,173.68-527.55,462.05-480.13,10.1,1.66,37.99,6.39,46.03,10,2.5,1.12,4.62,2.78,3.81,5.8-.39,1.44-13.3,16.49-14.93,16.81-2.14.42-4.82.04-7.04-.18-15.53-1.54-34-8.02-50.47-9.87-196.6-22.05-374.68,95.95-415.55,291.06-34.86,166.38,44.65,335.22,194.96,412.94,135.44,70.03,303.66,49.1,415.31-54.57l-114.93-15.06,62.81,19.77,3.28,4.61c-60.7-6.93-120.97-18.67-181.76-25.85-2.26,1.43,1.14,1.89,2.13,2.16,6.99,1.88,14.22,2.62,21.22,4.67,17.67,5.15,38.29,12.41,55.31,19.39,3.89,1.59,8.08,1.74,6.83,6.81l-180.34-22.98c-2.35,1.59.15,3.19,1.78,3.96,5.31,2.51,36.57,10.29,37.63,11.95.36.56.58,4.28-.65,4.22-30.73-6.46-61.66-12.39-92.14-19.93-27.27-6.74-54.93-16.54-82.15-22.72-8.37-1.9-57.38-8.1-59.2-10.49-4.49-5.91,23.52-5.52,25.85-4.3-4.68-12.96-8.85-28.49-8.7-42.38.1-9.45,5.41-39.63,9.71-47.65,3.75-6.98,22.18-.58,27.77-3.95,1.28-.77,11.01-25.83,11.26-27.66.65-4.71-14.42-21.89-18.47-26.19v27.99c0,1.57-2.46,10.54-3.62,12.17-3.91,5.5-11.68,6.79-17.21,2.88-3.16-2.23-7.19-10.21-9.32-8.58-.19.14-.22,2.7-2.31,4.11-16.19,10.92-44.48,2.97-58.79-8.43-4.75-3.79-6.66-8.03-7.53-14.01-3.11-21.23-2.2-74.89-.43-97.27.27-3.44,1.04-9.04,2.2-12.16,3.72-10.06,35.32-38.8,45.74-43.31,1.93-.84,20.98-8.16,15.14.06-1.28,1.8-16.86,6.11-20.25,7.75-6.54,3.19-35.32,31.73-36.73,37.95,2.43,34.67-4.92,78,1.16,111.61.7,3.89,6.1,7.8,10.03,7.93v-112.67c0-2.4,12.44-9.73,14.33.04,2.36,33.32-2.99,70.53-.03,103.36.92,10.23,7.54,13.71,17.31,13.57l2.88-71.78c1.16.18,4.01-.28,4.3,0,2.29,2.18-.91,55.06,2.89,63.16,4.55-.76,2.19-9.38,2.86-10.06.15-.15,4.14-.15,4.3,0,1.37,1.3-2.92,13.07,2.88,11.49v-54.54h-1.42s-.71,8.64-.71,8.64l-1.46,1.38c-.51-.69-2.16-1.74-2.16-2.12v-24.4c0-3.98-11.92-16.1-12.85-21.61-1.06-6.23.37-23.28,1.36-30.05,4.7-31.97,39.86-81.57,75.44-55.26,7.63,5.64,26.72,31.45,28.87,40.2.94,3.82-3.91,13.81-3.83,20.82.05,4.07,1.57,7.65,1.61,11.4.08,8.49-1.43,22.71-.06,30.2.22,1.19,1.14,3.59,2.15,3.59h21.56c.41,0,3.89,3.38,3.51,4.86-.96,5.99-28.06,4.62-33.67,5.22-2.74.29-10.85,1.57-12.72,2.72-3.17,1.94-2.74,11.01.01,11.66,9.14,2.17,33.41-3.44,44.32-4.35,6.63-.55,15.63,1.11,21.58,0,3.49-.64,3-3.46,4.55-4.41,3.9-2.39,30.52-1.63,37.15-1.41,3.92.12,13.4,3.61,15.84.15l1.2-158.1c2.11-1.64,4.84-1.47,7.33-1.41,33.88.82,68.2,7.18,102.1,8.84,2.73.77,4.42-1.26,4.93-3.74.67-3.22-1.45-1.97-3.54-2.12-35.41-2.49-92.26-13.33-124.89-9.9-8.93.94-25.33,7.72-33.23,7.06-3.04-.25-4.82-2.46-2.1-5.04,3.48-3.3,41.91-13.15,48.13-13.35,38.08,5.98,81.37,2.12,118.92,8.65,12.24,2.13,13.03,17.1,1,20.71-.77,15.36,5.75,34.08,5.88,48.63.01,1.59.04,3.35-1.42,4.33l-116.46,25.74c2.69,2.91,6.57,1.65,9.45,4.88s2.55,12.07,5.71,12.85c2.13.53,26.03-5.12,31.53-5.51,2.16-.15,8.37-.84,9.49.8,7.22,37.75,7.06,76.88,10.04,115.28,3.74-.34,11.05,5.56,12.56.63,2.27-7.41-3.25-44.49-1.21-46.43.16-.15,4.15-.15,4.3,0,1.66,1.64,1.24,44.32,2.87,45.94,2.26,2.24,12.97-3.27,16.45-2.96l121.5.07c.71-4.33-1.08-2.29-3.49-2.9-26.26-6.59-72.16-.38-100.75-2.78-8.01-.67-8.66-1.33-9.34-9.33-3.33-39.59-.11-82.19-2.88-122.12,1.08-10.82,12.72-5.06,19.41-4.9,19.46.46,36.86,1.63,56.12,2.8,8.87.54,60.31,1.38,63.59,4.66,1.59,1.59,1.65,5.26,1.84,7.49,2.89,34.73-.94,75.04-.12,110.63.09,4.09,4.62,25.06-2.1,25.06h-137.96c-4.54,0,1.09,23.55-.73,27.26-8.8,2.5-5.64-16.42-8.81-18.46-1.29-.83-27.63.68-30.71,1.24-4.47.82-4.38,5.32-3.29,9.02,2.08,7.04,14.76,5.47,17.07,9.15,3.52,5.59.31,26.64,8.08,28.97,6.47,1.95,29.76-12.22,35.66-16.97l141.52-2.9v-35.88c0-.66-8.72-1.01-10.02-7.93-.78-4.12-.43-44.46.66-46.63,1.39-2.78,7.26-3.6,10.25-4.12,3.42-.6,18.45-2.72,19.23.6.4,1.69-13.6,23.78-14.4,31.51-.22,2.11-.82,4.21,2.17,3.59,7.66-9.7,48.01-90.77,53.21-91.84,1.28-.26,3.4,1.29,3.58,2.18.97,4.85-27.64,48.69-25.86,50.92l199.03-27.25c2.29-.13,10.98-.86,7.87,2.82-.83.99-20.28,12.37-22.38,12.83-57.61,8.88-116.06,12.46-173.76,20.22-12.35,1.66-15.11.12-22,11.04-9.9,15.69-14.64,36.96-3.86,53.52,3.56.47,1.73-.96,1.52-2.94-.45-4.16-3.51-12.52,3.48-12.83-1.38,11.38-.21,19.93,5.12,30.05,1.36,2.59,11.18,16.53,12.87,17.3,4.5,2.05-2.48-8.7-3.29-11.08-1.86-5.5-6.64-30.22-.86-31.86,1.1-.31,18.4,1.54,22.87,1.39,18.57-.66,37.44-3.28,56-4.35,21.68-1.25,43.69-.51,65.38-2.88-1.07-3.5.25-12.47,4.3-8.63.6.57-.32,13.51.02,16.5,1.43,12.59,8.57,30.13,17.21,39.49-3.12-12.93-8.06-25.95-8.66-39.41-.25-5.53.69-30.06,5.11-32.34,4.28-2.21.7,4.72.7,5.01v27.27c0,22.57,20.66,50.9,38.33,63.61,3.73,2.68,9.06,1.66,7.66,7.43l-196.88-10.03c7.88,22.63-4.21,46.23-18.68,63.14,9.59-1,21.66,1.37,30.9,0ZM543.67,535.5v48.08c0,.81,2.08,3.21,1.47,5.02,14.17-.32,17.52-14.83,25.23-24.28l7.77-8.72c2.07,6.44-13.09,26.19-12.88,29.43.04.64,2.16,2.44,3.53,2.14,1.74-.38,22.06-23.99,23.54-26.73,3.28-6.05,3.24-13.95,3.07-20.63l-51.74-4.3ZM624.14,541.25c-5.05-4.61-15.4,13.38-12.92,18.64,3.72.86,2.51-1.09,3.7-2.71,1.43-1.94,10.55-14.72,9.22-15.94ZM639.95,542.68c-5.53-5.21-24.62,24.5-26.17,29.12-.6,1.79-1.5,5.54,1.03,5.29,2.13-.21,26.7-32.94,25.14-34.41ZM418.64,621.61c1.49-1.54-1.66-9.75-1.43-12.17.38-4.01,6.12-5.81,6.98-8.96,2.1-7.67-19.69-34.5-26.61-38.91-21.93-13.99-42.21,10.92-51.32,28.65-9.3,18.1-5.91,21.44.15,39.68,5.18,15.58,34.38,79.93,48.75,84.79,4.22,1.43,3.79-.64,2.7-4.14-6.22-20.02-29.05-44-37.1-70.59-1.52-5.02-4.39-20.38,2.13-9.3,8.23,13.99,12.71,28.79,22.97,43.07,3.16,4.41,4.55,9.91,9.61,4.39,1.26-1.38,8.79-13.12,8.79-14.17,0-2.17-11.21-18.66-13.17-22.71-5.85-12.06-11.88-27.82-12.67-41.15,3.82-.73,2.5.81,3.51,2.87,3.37,6.86,19.21,44.17,24.7,45.83,2.95.89,11.91-7.79,11.99-10.64.15-5.35-18.34-22.04-15.77-30.89,3.05,1.26,11.88,18.39,15.79,14.34ZM762.1,618.75c-27.57-2.04-55-3.32-82.61-4.33-2.74-.1-14.16-3.84-15.1.76-.42,2.05,1.69,3.45,3.59,3.56,20.6.5,41.25.72,61.84,1.39,9.58.31,20.04,2.79,30.15,1.5,2.1-.27,4.45-1.09,2.12-2.87ZM779.34,620.19c-4.17-1.19-4.19,6.87-4.36,9.27-2.31,31.28,2.77,64.11,1.5,95.49,3.77.63,2.55-.59,3.27-3.09,2.16-7.44-.36-9.93-.47-16.22-.46-28.46.47-57,.05-85.45ZM596.72,627.47c-1.71-1.08-38.18,6.53-39.49,8.45-.82,1.19.89,16,1.46,18.79,3.49,17.15,18.44,34.77,30.24,47.3,1.62,1.73,13.58,14.6,15.1,12.89l-7.31-87.43ZM753.48,640.28c-10.44.46-84.64-7.48-87.66-4.31-.15.16-.15,4.13,0,4.29,2.93,3.12,75.12,1.53,85.54,2.88l2.12-2.87ZM753.48,664.68c-17.49.14-35-3.64-52.39-4.37-7.75-.33-24.87-1.16-31.66.07-2.15.39-3.55,1.08-3.62,3.56-.09,3.57,47.31,1.99,52.53,2.11,10.39.23,22.1,2.89,33.02,1.5,2.1-.27,4.45-1.09,2.12-2.87ZM750.61,687.65c-26.49-2.67-53.23-3.42-79.82-4.39-6.32.34-7.18,5.07,0,5.88,18.5,2.07,42.53-.67,61.92-.12,5.42.15,14.17,4.65,17.9-1.36ZM502.72,792.41h96.28c4.51,0,1.07-20.94-1.67-21.59l-106.83-1.38c-.41-3.45.03-5.09,3.59-5.73h95.56c.81-.72-9.46-16.52-12.51-16.93-30.43-2.23-62.99,1.93-93.17-.23-5.96-.43-9.08-.42-7.85-7.23l99.16,1.41c-6.55-9.54-7.71-16-20.87-15.87-26.37.26-46.62.36-73.27-1.32-3.13-.2-17.33.63-17.95-.02-.15-.16-.21-4.3,0-4.3h93.41c.5-1.63-4.36-6.72-4.98-7.17-2.08-1.49-3.17-2.36-5.89-2.79-15.84-2.49-40.28.56-57.45-.03-17.31-.59-43.83-6.04-60.26-2.9-12.12,2.32-29.06,46.62-29.49,58.8,6.35,6.58,16.67-27.26,17.98-30.11,5.91-12.92,15.05-30.45,30.85-15.07,12.38,12.04,46,80.36,47.5,97.52,2.5,28.69-2.32,39.21-18.08,60.99-7.69,10.62,5.94,4.01,10.85-1.06,9.2-9.51,10.13-22.62,18.24-31.61l101.04-3.16v-4.29c-14.07-3.39-94.14,5.36-100.69.8-1.48-1.03-1.21-2.79-1.41-4.32-2.48-19.52,10.26-12.47,23.59-13.89,9.08-.97,18.07-5.63,27.49-6.99,16.08-2.32,34.01-.97,50.28-1.45,4.52-.52,4.74-4.89,1.56-7.29-4.89-3.69-16.91.05-23.04.19-26.41.59-52.71-.94-79.07-1.54-6.52-1.23-8.73-9.81-2.91-11.44ZM754.92,712.05l-87.67-4.31v5.73c27.27-2.69,58.84,4.84,85.54,1.44,1.99-.25,4.25-.84,2.13-2.86ZM435.18,727.86c-10.71,5.15-12,45.68,1.36,44.53,11.06-.96,10.54-39.2-1.36-44.53ZM864.85,762.27h133.65c2.85,0,1.32-17.59-2.82-17.32l-130.66,4.57c-1.45.71-6.68.76-6.66,2.05.03,3.6,2.59,9.87,6.5,10.7ZM458.89,841.93c-1.02-8.78,0-20.89,0-30.14,0-5.69,9.37-23.99,8.62-25.1-3.5-5.15-23.77,2.46-28.71,3.64-1.86.44-3.89.54-4.33-1.52-.86-3.99,13.52-7.79,14.36-12.16-4.38-.62-28.59,5.23-29.92,7.4-2.85,4.67,5.53,25.47-1,31.33-6.88,1.46-5.22-27.45-6.45-28.7-.96-.97-8.23,1.34-10.51,1.15-4.26-.37-2.32-5.26-10.34-4.09-11.62,1.7.61,12.64,1.83,19.8,1.04,6.13-1.2,29.02,1.76,31.26,22.03,3.48,44.03,8.58,66.13,10.73.53-1.6-1.36-2.95-1.43-3.58ZM367.93,788.29c-10.54,3.02-12.18,48-3.28,54.46,10.18,7.39,14.55-12.51,15.18-19.51.63-6.97.3-38.45-11.9-34.95ZM482.9,852.26c9.15-7.79,7.64-49.47-3.92-54.81-14.45-6.68-15.33,28.83-14.23,37.18.98,7.39,8.94,25.47,18.15,17.63ZM848.33,803.89h-55.33c-1.57,0-6.25,2.88-9.33,1.45v1.42s64.66,0,64.66,0v-2.87ZM845.45,832.61l-32.38-.07-29.39,2.91,29.51.07,32.27-2.91ZM407.15,861.31c-.3-5.49,2.57-18.59-6.32-15.67-4.46,1.46-4.48,20.36,6.32,15.67ZM415.78,849.81c-.11,4.37-1.52,17.51,5.04,17.19,2.32-.11,8.44-22.27-5.04-17.19ZM440.2,869.92c-.5-5.59,2.92-20.14-6.32-17.11-4.23,1.39-4.89,22.04,6.32,17.11ZM449,874.04c.19.22,5,1.3,5.65.95,3.15-1.69,3.25-18.43-3.65-19.45-3.26-.48-2.67,6.27-2.74,8.44-.05,1.72.41,9.68.74,10.06ZM466.2,878.38c4.24,2.61,9.45-4.35,9.65-8,.11-1.9-6.13-10.18-7.65-10.5-5.77-1.24-3.67,17.48-2,18.51ZM700.31,877.08c-2.11-3.87-8.67-4.31-12.67-5.27-11.06-2.66-23.37-4.15-34.75-4.74l11.19,3.87,36.22,6.15Z"/>
    <path d="M608.26,1159.88c-23.6,0-46.83-1.34-67.17-3.88l-.42-.05c-30.18-3.76-38.27-7.26-41.15-11.34-1.16-1.65-1.73-3.51-2.18-5.01-.14-.45-.27-.9-.42-1.32-1.6-4.35-3.5-13.73-5.7-24.59-2.3-11.35-6.11-30.16-8.39-34-3.03-1.55-15.7-5-23.39-7.09-6.29-1.71-11.72-3.19-14.49-4.17-17.29-6.18-33.93-13.63-49.54-20.8-.89.39-2.27,1.28-3.08,1.81-.74.48-1.44.94-2.15,1.33-3.13,1.76-9.58,6.56-16.4,11.63-20.85,15.51-30.47,21.99-36.08,21.99h-.27c-10.5-.36-58.32-35.29-58.78-35.64-1.28-.96-2.71-1.96-4.23-3.02-8.68-6.06-19.48-13.6-18.72-25.93.38-6.18,3.63-18.2,7.08-30.92,2.94-10.87,7.33-27.07,7.15-31.48-2.47-3.25-13.66-15.2-20.51-22.5-5.07-5.41-9.07-9.68-10.62-11.49-1.99-2.32-5.03-6.49-8.25-10.92-3.9-5.35-10.42-14.3-12.32-15.69h0s-.91-.54-4.08-.54c-6.49,0-16.89,2.19-26.96,4.3-10.83,2.28-22.04,4.63-29.94,4.63-2.34,0-4.3-.2-6.01-.6-6.09-1.45-11.85-10.22-20.34-25.89-.54-.99-1-1.85-1.38-2.54-.29-.52-28.8-52.84-27.65-64.74.39-3.98,2.99-8.06,5.21-11.17,4.87-6.81,11.79-13.53,18.49-20.04,6.64-6.45,13.51-13.12,17.98-19.53l.65-.93c2.39-3.38,2.76-4.16,2.06-6.37l-.06-.19-17.3-74.03c-4.44-2.81-14.15-6.66-23.56-10.39-21.56-8.55-34.93-14.15-37.95-21.18-1.94-4.51-2.97-24.78-2.98-24.99-.69-13.9-.69-31.18,0-45.11l.07-1.45c.41-8.47.93-17.85,1.85-21.98.76-3.4,2.97-6.74,5.94-8.94l.62-.46,59.97-20.85,2.14-3.04,22.61-80.38c-2.63-5.35-13.69-16.97-21.92-25.62-15.68-16.47-22.08-23.72-22.2-29.14-.05-2.23.65-6.16,9.67-24.62,6.16-12.6,23.09-44.21,33.29-56.07.26-.3.5-.6.74-.89,1.47-1.81,3.3-4.06,6.99-5.21,2.07-.65,4.53-.97,7.5-.97,9.24,0,22.26,3.14,34.86,6.18,10.11,2.44,20.56,4.96,26.62,5.11.2,0,.4.01.59.02,16.89-19.27,35.71-36.9,53.93-53.97,4.6-4.31,9.35-8.76,14.01-13.18.31-5.33-3.24-21.97-5.43-32.22-2.29-10.76-4.46-20.92-4.73-26.51-.18-3.71-.4-8.33,2.35-12.73,1.75-2.79,7.52-6.79,22.89-15.86.85-.5,1.56-.92,2.09-1.24,24.14-14.46,41.64-23.66,53.52-28.11.41-.15.85-.34,1.3-.53,1.92-.81,4.31-1.81,6.83-1.81h.25c6.79.18,16.33,9.23,34.98,28.4,7.21,7.41,14.66,15.07,18.52,17.8l3.37.79c12.4-4.23,26.98-8.97,42.17-12.73,3.38-.84,10.14-2.07,17.97-3.49,11.24-2.05,32-5.83,35.74-7.69,2.85-3.27,7.91-22.76,10.64-33.3,2.76-10.63,5.14-19.82,7.23-24.34,4.78-10.35,16.41-10.98,24.9-11.44.76-.04,1.51-.08,2.25-.13,8.53-.54,18.98-.82,30.22-.82s22.82.29,32.29.83c.64.04,15.62.89,19.41,1.97,4.58,1.3,7.42,6,9.15,9.42,2.13,4.21,4.92,14.1,9.26,29.88,2.72,9.89,6.7,24.37,8.72,28.91,4.05.86,8.17,1.7,12.17,2.51,10.55,2.14,21.46,4.36,32.06,7.18l3.19.85c11.91,3.16,28.21,7.48,38.19,11.95,6.59,2.96,10.15,7.73,9.52,12.77-.58,4.63-4.6,8.02-10.73,9.08-.63.11-1.29.16-2.03.16-5.55,0-14.59-3.09-26.76-7.45-4.31-1.55-8.39-3.01-10.8-3.66-18.32-4.94-37.12-9.17-55.89-12.56l-1.08-.2-.9-.63c-3.2-2.25-5.58-5.08-7.48-8.92-4.32-8.71-6.95-19.72-9.5-30.37-2.25-9.42-4.58-19.15-8-26.86-.53-.24-1.7-.65-3.94-.97-8.71-1.24-20.68-1.92-33.71-1.92s-25.52.65-35.31,1.77c-2.57.3-3.12.6-3.22.69-.4.33-1.2,1.99-1.85,3.32-1.96,4.05-4.63,13.6-7.21,22.84-6.33,22.66-9.85,33.74-14.73,37.45-4.79,3.65-14.84,5.36-28.51,7.37-4.36.64-8.47,1.25-11.03,1.85-14.58,3.41-29.32,7.46-43.57,11.38-10.29,2.83-20.94,5.75-31.47,8.42l-1.45.37-10.76-3.74-.62-.46c-3.35-2.49-10.7-10.02-19.21-18.74-7.86-8.05-19.42-19.89-23.5-22.9-6.83,2.29-33.35,15.89-41.23,20.23-.78.43-1.83.99-3.07,1.64-11.93,6.31-18.85,10.7-20.62,13.07.73,8.28,2.5,16.59,4.37,25.36,3.02,14.2,6.14,28.88,4.51,43.53l-.18,1.66-1.14,1.21c-6.67,7.1-14.15,13.42-21.38,19.54-5.32,4.5-10.81,9.15-15.82,13.98-5.93,5.72-11.58,12.03-17.05,18.13-7.51,8.38-15.27,17.05-24.04,24.56l-.46.4-.54.27c-1.96.99-3.82,1.1-5.04,1.1-.47,0-.94-.02-1.41-.04-.25-.01-.5-.02-.75-.03-7.62-.17-18.62-2.98-30.26-5.95-10.9-2.78-22.18-5.66-28.59-5.66-.76,0-1.42.04-1.95.12-1.73.85-5.06,5.27-9.92,13.15-.47.75-.88,1.42-1.23,1.97-4.96,7.81-24.52,41.88-25.96,47.36,0,.09,0,.16,0,.22,4.99,6.1,10.66,12.07,16.16,17.85,9.86,10.38,20.06,21.11,27.44,33.61l1.09,1.85-27.55,96.66-.04.11c-2.12,6.34-8.4,8.99-12.99,10.93-.46.2-.92.39-1.35.58-8.27,3.6-17.36,6.35-26.15,9.02-8.44,2.56-17.15,5.19-24.97,8.55-2.35,8.3-2.57,48.8-1.96,59.46.19,3.33.96,12.17,1.4,15.1,2.99,2.31,14.84,6.8,23.62,10.12,18.92,7.17,30.71,11.9,34.95,17.12,4.21,5.19,7.29,21.29,11.19,43.47.99,5.63,1.84,10.5,2.49,13.36.53,2.36,1.74,6.36,3.01,10.6,4.45,14.77,7.27,24.84,6,30.12-.62,2.57-2.41,5.24-4.35,7.98l-.14.19c-2.41,3.41-9.56,11-17.84,19.8-7.68,8.15-18.85,20.02-22.22,24.66l33.46,66.9c11.13-1.15,22.47-3.14,33.47-5.07,8.68-1.52,17.65-3.1,26.54-4.27l.48-.06.48.03c5.51.35,9.47,4.49,12.36,7.52.35.37.69.73,1.03,1.07,17.09,17.34,43.05,48.58,50.59,57.74.38.46.77.92,1.16,1.39,3.85,4.57,9.12,10.83,7.69,18.98l-.04.2-13.52,62c5.12,4.58,22.74,17.26,28.3,20.98,1.23.83,2.82,1.91,4.62,3.15,6.82,4.67,18.24,12.49,22.55,14.15l.18.07c1.53.59,2.05.78,2.79.78.2,0,.42-.01.65-.04,3.03-.31,13.13-8.42,19.81-13.79,13.53-10.87,27.52-22.11,37.94-22.11h.36s.9.03.9.03l.84.34c5.95,2.39,11.88,5.07,17.61,7.66,7.04,3.18,14.33,6.47,21.56,9.18,6.62,2.47,14.74,4.75,23.35,7.15,12.25,3.42,24.92,6.96,33.59,11.34,2.43,1.22,4.45,2.34,6.53,4.62,5.29,5.79,7.9,18.81,11.3,38,1.73,9.78,3.52,19.9,5.63,24.95.3.72.49,1.34.63,1.81,3.52,1.49,25.03,4.4,35.25,5.44,19.1,1.95,36.93,2.89,54.51,2.89s34.65-.94,52.18-2.87c1.15-.13,2.49-.27,3.97-.42,9.45-.99,27.03-2.84,33.13-5.33.31-.13.52-.22.66-.29l.09-.28c1.46-4.3,2.81-12.73,4.24-21.65,3.58-22.35,6.62-38.64,13.21-44.71,4.18-3.86,13.18-6.75,25.43-10.42,3.79-1.13,7.37-2.21,9.67-3.08,19.24-7.27,38.13-15,56.4-22.49l.59-.24.63-.09c1.23-.17,2.36-.25,3.45-.25,4.55,0,7.77,1.49,11.22,3.29,4.58,2.39,12.78,8.97,22.28,16.58,7.64,6.12,18.92,15.16,22.86,17.08,2.1-.98,7.73-4.39,22.82-15.34.75-.55,1.37-.99,1.81-1.31,5.33-3.83,28.39-21.11,32.43-24.93,1.17-5-3.51-24.97-6.07-35.88-2.66-11.35-4.95-21.14-5.17-26.88-.26-6.98,1.37-10.5,5.12-15.76,5.29-7.43,13.14-15.74,20.72-23.77,4.89-5.18,9.5-10.07,13.33-14.58,1.19-1.41,3.13-3.98,5.37-6.96,12.08-16.04,18.34-23.39,23.5-24.54,1.96-.44,4.34-.64,7.49-.64,1.71,0,3.42.06,4.93.11l1.51.05c4.29.13,11.12,1.12,18.35,2.17,8.51,1.24,18.16,2.64,23.97,2.64,1.03,0,1.77-.04,2.29-.1,2.01-2.85,6.35-12.17,9.59-19.12,9.49-20.37,14.15-29.52,18.97-31.75,1.69-.78,3.42-1.17,5.14-1.17,3.23,0,6.2,1.41,8.17,3.88,2.1,2.63,2.84,6.19,2.02,9.77l-.13.56-.25.52c-2.33,4.8-4.64,9.89-6.87,14.82-4.28,9.47-8.71,19.26-13.88,28.22-.76,1.31-1.42,2.52-2.03,3.63-4.8,8.73-7.91,13.28-20.92,13.28-.55,0-1.11,0-1.7-.02-7.46-.19-15.25-1.38-22.78-2.53-8.1-1.24-16.48-2.52-24.3-2.52-.03,0-.06,0-.09,0l-53.79,61.84-.94,3.79c.46,5.59,2.71,14.63,5.09,24.18,4.27,17.14,8.68,34.87,5.91,44.08-.74,2.46-1.97,6.57-36.6,31.76l-.41.3c-1.82,1.33-3.96,2.92-6.28,4.65-8.69,6.49-19.51,14.58-26.65,18.14-3.98,1.98-6.91,2.83-9.8,2.83-4.39,0-7.88-2.04-11.92-4.4-8.01-4.68-15.9-11.26-23.53-17.62-6.18-5.15-12.55-10.46-18.76-14.55l-4.74-.07-78.02,30.74c-2.14,4.54-4.86,21.43-6.53,31.77-1.82,11.29-3.39,21.03-5.09,25.95-4.35,12.53-19.61,14.65-30.76,16.2-1.46.2-2.88.4-4.2.61-21.99,3.5-48.31,5.35-76.12,5.35Z"/>
    <path d="M85.59,558.8c-4.15,4.16-3.79,54.71-3.27,63.59.17,2.98,1.18,15.34,1.72,16.94,2.07,6.2,52.19,19.43,59.36,28.27,5.1,6.28,10.2,43.73,12.69,54.78,1.89,8.38,10.53,32.21,9.03,38.45-.46,1.92-2.48,4.73-3.7,6.45-5.41,7.64-41.36,43.08-41.59,47.3l36.14,72.25c21.18-1.85,42.37-6.89,63.59-9.69,4.09.26,7.42,4.35,10.14,7.1,14.66,14.87,36.67,40.87,50.3,57.41,3.81,4.62,8.93,9.81,7.79,16.32l-14.06,64.46c.64,2.46,26.58,20.82,30.95,23.74,6.35,4.24,22.14,15.49,28.16,17.81,2.16.83,3.47,1.37,5.93,1.11,10.41-1.08,42.27-36.24,57.47-35.87,13.17,5.29,25.99,11.91,39.28,16.88,16.51,6.17,42.42,11.19,56.44,18.27,2,1.01,3.54,1.83,5.09,3.53,8.03,8.8,10.39,48.07,16.01,61.51.83,2,.42,3.04,2.88,4.3,4.19,2.13,30.6,5.34,37.1,6,36.51,3.72,71.14,4.05,107.75.01,9.24-1.02,30.73-2.95,38.45-6.1,1.86-.76,3.1-1.49,3.59-3.59,4.47-13.18,7.05-55.95,16.1-64.3,5.26-4.85,25.39-9.44,33.48-12.49,18.98-7.17,37.76-14.85,56.53-22.54,4.91-.68,7.52.35,11.67,2.52,9.41,4.92,41.4,33.88,47.36,34.45,3.06.29,23.41-14.77,27.64-17.81,4.37-3.14,33-24.46,33.9-26.41,4.05-8.78-10.14-52.26-10.63-65.53-.21-5.73.96-8.13,4.19-12.67,8.39-11.78,23.83-26.27,33.79-38.02,5.02-5.93,20.46-28.58,26.15-29.86,3.57-.8,8.87-.48,12.69-.36,10.54.31,39.36,6.5,47.06,4.38,4.31-1.19,21.61-47.88,28.35-50.98,5.13-2.36,9.59,1.48,8.37,6.83-6.79,13.97-12.84,29.31-20.58,42.73-6.19,10.73-6.39,14.74-20.2,14.39-15.86-.4-33.33-5.55-49.6-5.02l-56.04,64.43-1.43,5.73c.87,15.29,15.14,54.29,11.26,67.26-1.52,5.06-29.11,25.04-35.17,29.45-8.46,6.16-23.61,18.06-32.22,22.36-7.67,3.82-10.15,2.57-16.96-1.42-14.49-8.48-28.8-23.62-43.31-32.84l-7.16-.1-80.39,31.68c-5.13,5.32-9.23,49.14-13.05,60.17-3.82,11.03-20.31,11.8-31.02,13.51-42.62,6.79-99.04,6.8-141.88,1.45-7.47-.93-34.52-4.22-38.1-9.31-1-1.42-1.4-3.51-2.01-5.17-3.75-10.22-10.52-56.54-15.44-60.65-3.35-2.8-32.4-9.62-39.54-12.18-17.19-6.14-33.92-13.64-50.48-21.25-2.64-.23-6.09,2.64-8.42,3.95-9.6,5.41-42.76,33.23-50.12,32.98s-47.78-28.49-55.95-34.64c-8.31-6.25-21.66-13.27-20.96-24.65.78-12.7,16.11-57.18,14.02-64.48-.66-2.3-27.8-30.42-32.13-35.47-4.87-5.68-17.35-24.42-21.43-27.4-8.92-6.5-54.27,10.41-68.78,6.97-5.75-1.36-15.21-20.08-18.51-26-5.48-9.83-27.86-53.36-27.04-61.82.28-2.86,2.62-6.39,4.3-8.74,9.38-13.12,27.19-26.25,36.5-39.61,2.68-3.84,5.02-6.5,3.38-11.67l-17.68-75.68c-9.87-7.95-57.31-21.14-61.36-30.57-1.25-2.91-2.35-18.72-2.58-23.26-.68-13.66-.68-30.95,0-44.61.27-5.47.82-18.18,1.8-22.6.52-2.35,2.12-4.59,4.04-6.01l60.76-21.12,3.56-5.05,23.29-82.81c-3.33-11.59-44.2-46.54-44.39-54.63-.08-3.39,7.16-18.21,9.16-22.31,6.71-13.74,23.16-44.05,32.59-55,1.68-1.95,2.71-3.74,5.44-4.6,13.02-4.1,51.26,10.15,67.36,10.54,1.54.04,2.7.35,3.9-1.03,21.47-24.61,45.78-46.16,69.39-68.61,2.44-8.16-9.2-48.92-9.8-61.46-.17-3.44-.33-6.77,1.6-9.84s18.94-12.85,23.31-15.47c14.4-8.63,37.44-21.99,52.71-27.72,1.96-.73,4.47-2.08,6.5-2.02,9.2.24,41.3,39.41,51.62,45.86l5.64,1.32c14.19-4.85,28.55-9.47,43.11-13.07,9.7-2.4,51-8.65,55.51-12.01,6.36-4.75,14.55-49.06,19.4-59.56,3.86-8.35,14.35-8.14,22.93-8.68,18.18-1.15,43.68-1.02,61.92.01,3.8.22,15.68,1.04,18.33,1.79s4.83,4.46,6.05,6.87c4.56,9.01,15.69,58.69,19.41,60.99,15.29,3.3,30.86,6.03,45.98,10.06,11.62,3.1,30.1,7.81,40.62,12.53,8.77,3.93,8.92,10.82-.02,12.36-6.45,1.11-29.19-8.62-37.43-10.84-18.56-5.01-37.37-9.23-56.31-12.66-2.65-1.86-4.44-4.15-5.87-7.05-7.99-16.12-10.01-41.22-17.92-58.17-1.42-1.72-5.08-2.45-7.29-2.76-19.48-2.78-50.63-2.43-70.3-.17-5.95.69-6.61,1.86-9,6.8-5.43,11.23-13.72,53.35-20.47,58.49-6.02,4.58-28.82,6.26-37.65,8.33-25.21,5.9-50.04,13.46-75.13,19.82l-8.62-2.99c-7.21-5.37-39.84-41.58-44.85-42.87-2.99-.77-38.9,18.01-44.49,21.09-5.58,3.08-25.49,12.82-26.36,18.27,1.75,22.88,11.54,46.32,8.99,69.15-11.37,12.1-25.12,21.86-37.03,33.34-14.18,13.68-26,29.77-40.86,42.49-1.58.79-3.18.54-4.85.5-15.47-.35-50.14-13.48-61.96-11.37-4.64.83-11.56,12.97-14.33,17.33-4.18,6.58-26.47,44.9-26.72,49.54-.07,1.23,0,2.36.72,3.41,14.02,17.27,32.27,32.2,43.55,51.31l-26.93,94.49c-1.57,4.69-7.33,6.64-11.6,8.51-16.45,7.16-36.21,10.84-52.8,18.3Z"/>
    <path d="M1086.57,652.16c76.68-9.76,98.18,104.61,46.31,148.16-38.64,32.45-83.76,11.65-100.87-31.33-17.17-43.13,2.87-110.25,54.56-116.83ZM1065.33,798.13c.42.61,11.8,5.26,13.61,5.8,73.5,22.2,100.73-108.8,37.23-139.09-12.22-5.83-31.21-7.47-42.22,1.24,59.11-10.52,91.89,66.42,57.5,109.09,0-8.64,5.32-15.8,6.79-24.06.32-1.79,1.8-8.61-1.04-8.94-1.04,3.51-1.48,7.38-2.85,10.79-.84,2.09-12.02,26.19-15.84,22.2-1.3-1.35,14.03-29.78,9.34-35.87-10.35,23.05-23.44,44.41-48.19,53.78-1.77.67-15.91,2.74-14.33,5.04Z"/>
    <path d="M866.98,152.3l-88.93,434.29c-14.08,7.56-9.93-6.7-8.34-15.49,19.1-105.5,46.81-209.77,66.72-315.14,2.61-13.81,4.93-27.99,6.13-41.94l-1.43,4.31-2.75-3.46,12.92-63.07c-.53-2.34-13.56-2.41-11.59-8.81,1.32-4.29,14.13.89,20.14-7.16,1.04-1.4,4.18-8.46,3.98-9.83-.08-.57-5.9-9.44-6.46-9.6-4.76-1.33-13.38.99-17.6,3.68-3.07,1.96-20.99,22.09-21.55,24.45-1.22,5.22,19.73,6.89,16.55,14.99-27.81,137.08-56.71,273.93-87.08,410.43-8.39,1.82-1.18-7.12-2.85-12.9l-4.28,4.3.35-7.53,84.44-382.13c-2.43-3.08-2.35-.07-3.22,1.14-2.63,3.65-15.96,23.9-19.07,23.93-.55,0-2.45-2.11-2.14-3.52.34-1.5,15.87-20.45,18.41-24.69,3.37-5.64,8.36-12.96-1.98-11.39-3.95.6-40.9,56.33-46.89,64.48-55.65,75.66-111.6,151.66-168.68,226.23-11.56,15.1-23.9,29.83-35.85,44.57l-.69-2.12c29.37-39.17,57.88-79,87.05-118.31,28.95-39.02,58.25-77.74,87.08-116.83,25.11-34.05,51.83-67.11,74.46-102.87l-5.7,3.62c-76.41,98.15-150.73,198.27-230.01,294.14-9.6,11.6-20.67,25.99-30.84,36.66-1.19,1.25-6.39,7.23-7.92,5.71-2.06-2.04,32.49-41.54,34.54-46.58,66.35-84.73,135.43-167.43,201.1-252.7,17.73-23.02,34.81-52.56,54.6-73.21,3.87-4.04,9.28-10.74,15.1-10.78,2.3-.01,22.22,6.25,25.56,7.56,4.3,1.67,9.91,4.12,11.05,9.06.91,3.93,3.07,22,2.29,25.08-2.61,10.34-13.4,12.46-16.63,1.43Z"/>
    <path d="M893.62,341.75c1.85-.4,18.8,21.24,21.38,24.54,48.71,62.42,81.43,139.34,88.51,218.74,1.48,16.62,3.15,45.58-.29,61.39-2.15,9.86-25.74,9.89-26.89,5.87-.65-2.28,2.61-21.18,2.75-25.67,2.27-72.78-22.13-155.61-62.62-215.86-4.83-7.18-24.23-29.33-25.79-34.51-1.1-3.64-.15-25.09.76-29.51.3-1.48.17-4.56,2.19-4.99Z"/>
    <path d="M1140.89,652.22c-3.84,0-6.9-2.77-8.86-4.85-6.14-6.51-4.71-19.44-3.45-30.85.43-3.85.83-7.48.8-9.96-.01-1.18-.33-2.54-.66-3.97-.4-1.75-.86-3.73-.91-5.91-.05-1.89.02-4.39.09-7.28.15-5.77.5-19.18-1.28-22.19-2.73-2.44-18.48-7.07-28.94-10.14-23.45-6.89-34.9-10.69-38.56-15.83-2.81-3.96-4.96-13.88-7.91-28.56-.99-4.91-1.92-9.55-2.61-12.04-1.54-5.57-3.97-12.57-6.53-19.97-4.35-12.54-8.84-25.51-10.11-34.54-1.08-7.66.64-10.38,4.02-14.91.29-.39.6-.8.93-1.25,5.51-7.5,13.36-14.75,20.95-21.76,8.12-7.49,16.5-15.24,22.04-23.23.81-3.02-3.13-10.04-5.29-13.87-.72-1.29-1.41-2.5-1.99-3.63-7.39-14.32-23.54-42.41-27.88-45.57-1.59-.84-1.68-.88-2.88-.88-6.28.02-17.9,2.68-29.14,5.25-13.09,3-26.63,6.1-35.57,6.1-2.73,0-4.96-.28-6.81-.86-3.4-1.06-7.37-4.78-13.52-11.27-.56-.59-1.05-1.11-1.46-1.53-5.06-5.21-10.07-10.61-14.92-15.83-8.92-9.62-18.15-19.57-27.92-28.51-1.39-1.27-5.08-4.01-8.66-6.66-9.08-6.73-11.9-8.98-13.09-10.86-2.19-3.47-2.29-7.93-.25-11.63,2.01-3.64,5.7-5.82,9.87-5.82,1.85,0,3.74.42,5.63,1.26,7.54,3.33,20.74,16.19,34.76,30.21,2.57,2.57,4.79,4.79,6.45,6.39,1.5,1.44,4.3,4.39,7.84,8.12,6.18,6.5,20.31,21.36,24.44,24.12,6.06-.2,17.45-2.74,28.49-5.2,14.42-3.22,29.33-6.55,39.16-6.55,3.62,0,6.43.45,8.61,1.38,1.86.8,3.98,1.7,20.47,29.18,8.11,13.51,16.31,27.91,18.23,31.77.4.81.89,1.75,1.42,2.78,5.53,10.71,10.31,20.89,8.06,27.85-2.14,6.63-12.12,16.45-27.1,30.69-5.57,5.29-10.83,10.29-13.44,13.34-.42.49-.89,1.02-1.39,1.6-1.71,1.94-6.9,7.82-6.78,9.92.4,4.42,4.33,15.21,7.5,23.87,2.12,5.82,4.13,11.31,5.24,15.21.78,2.75,1.94,8.03,3.27,14.13,1.82,8.34,5.19,23.74,6.7,26.69,3.39,3.32,25.53,9.79,37.47,13.27,9.48,2.77,17.67,5.16,21.88,6.98,12.27,5.32,12.87,15.99,13.39,25.4.05.91.1,1.83.16,2.77,1.13,17.39,1.13,42.41,0,58.21l-.06.85c-.51,7.4-1.29,18.57-9.9,18.57Z"/>
    <path d="M943.77,280.86c5.36,5.16,30.66,33.11,34.69,33.64,15.44.24,63.55-15.82,75.35-10.78,3.78,1.61,32.56,51.27,36.2,58.57,3.19,6.4,11.26,20.48,9.2,26.87-2.92,9.03-31.54,32.93-39.58,42.31-3.25,3.79-9.78,10.45-9.36,15.21.73,8.12,10.08,30.08,12.91,40.01,2.19,7.7,7.95,38.6,10.72,42.4,4.89,6.71,50.32,17.09,61.42,21.9,10.38,4.5,9.87,13.36,10.55,23.91,1.06,16.37,1.17,41.22,0,57.53-.51,7.13-1.09,21.15-10.19,11.5-6.39-6.78-1.17-27.8-1.29-37.43-.04-3.38-1.49-6.55-1.57-9.95-.18-7.41,1.52-26.97-2.15-32.3-4.84-7.04-61.58-17.64-67.47-25.91-3.59-5.04-7.53-30.93-9.77-39.04-4.19-15.11-14.58-40.12-16.51-53.88-.93-6.6.43-7.6,4.03-12.51,11.09-15.09,32.37-29.29,43.43-45.64,2.69-6.17-4.21-16.12-7.3-22.11-4.17-8.09-24.07-44.57-29.89-47.65-2.04-1.08-2.94-1.51-5.36-1.51-15.96.04-57.85,14.52-69.98,10.73-3.29-1.03-10.09-8.63-12.89-11.52-14.37-14.78-27.8-30.6-43.05-44.55-3.76-3.44-19.4-14.13-20.89-16.5-2.96-4.7,1.41-12.3,9-8.95,9.13,4.04,31.31,27.49,39.77,35.63Z"/>
    <path d="M457.45,522.58c-3.89,1.49-20.11,8.65-21.17,2.17-.93-5.68,15.5-6.58,19.1-9.26,1.48-1.11,7.39-13.82,10.74-17.98,6.27-7.78,24.2-27.67,31.87-11.82,10.55,21.79-6.56,18.61-20.48,24.93l-1.37,89.46c9.98,3.29,44.24-1.72,49.92,4.68,1.7,1.91,1.66,5.02,1.87,7.47.56,6.55.67,52.37-.77,55.33-.85,1.76-2.54,2.48-4.36,2.82-4.18.79-37.95.74-41.34-.25-5.09-1.49-5.37-11.05-1.81-14.14.83-.72,10.79-3.82,6.57-6.4-9.25-5.67-39.79,2.89-42.86-7.43-.71-2.38-1.71-17.5-1.8-21.19-.5-20.87,14.17-12.59,28.21-20.78-1.1-11.11-1.23-22.68-.88-33.87.11-3.4,1.45-6.54,1.55-9.93.38-12.86-2.76-44.33,3.58-53.84,1.73-2.59,18.8-13.65,15.04-17.26-3.39-3.25-19.32,13.35-21.54,16.51-11.69,16.59-2.27,49.73-5.77,68.87-.45,2.48-1.53,4.02-4.3,3.6v-51.67ZM477.58,608.69c-1.26-1.25-26.06.81-28.79,3.56-2.05,2.07-2.17,18.41-.72,20.92,1.11,1.92,14.98-2.84,18.69-3.01,4.53-.21,26.51,3.13,28.06,1.5,4.72-4.96-9.11-4.8-12.12-5.84-9.6-3.34-3.19-15.19-5.13-17.12Z"/>
    <path d="M884.25,542.68c-.29.28-3.14-.18-4.3,0-.37-28.46.45-56.99.05-85.46-1.1-78.99-3.4-159.08-1.57-238.26.06-2.75,1.05-5.18,1.5-7.82-4.11-.76-2.35,1.03-3.23,3.15-1.73,4.17-3.66,8.67-4.03,13.27.87,81.37-.87,162.78,0,244.14.23,21.81,4.03,45.57,1.57,67.46-.68,6.09-4.82,6.87-5.81,1.36-2.37-13.26.39-38.2.05-53.15-1.92-84.97-1.53-170.29-1.42-255.48,0-3.22-1.51-6.61-1.4-8.66.16-2.98,3.88-4.5,5.28-7.42,8.56-17.9,4.54-27.67,6.1-45.59.75-8.62,6.35-9.32,7.26-1.49,1.8,15.47-2.18,32.11,0,47.37l-.08,326.59Z"/>
    <path d="M666.83,749.64l131.88-.25c7.81.86,6.86,22.46,1.19,24.07-2.33.66-11.01,1.48-14.1,1.71-27.96,2.04-59.24-.53-87.7-.04-7.47.13-26.6,4.9-31.69-1.25-2.47-2.99-6.41-22.45.42-24.24Z"/>
    <path d="M869.47,553.04c23.87-5.49,30.36,21.19,18.28,38.34-5.94,8.44-11.54,6.56-9.15,20.82,1.04,6.21,5.35,5.93,7.92,10.73,2.06,3.85,1.61,7.77,3.17,11.18,3.75,8.18,13.53,21.27,15.49,29.06,1.26,5.01-4.12,6.06-6.4,2.05-6.2-11.16-12.53-28.68-20.94-37.93-3.3-3.63-9.38-5.15-10.58-11.05-1.5-7.34,5.91-13.33,5.27-16.68-.52-2.72-12.03-10.16-13.79-20.64-1.45-8.6.81-23.62,10.73-25.9ZM877.07,571.36c-.83-4.49,3.13-6.48,5.72-9.31-26.48-17.21-21.24,41.8-2.08,26.59,9.48-7.53-.4-6.8-.76-7.22-3.61-4.09,5.71-5.04,5.72-6.45l-8.59-3.61Z"/>
    <path d="M757.38,252.9c1.78-.45,32.29,13.04,33.57,14.81,3.19,4.39-.37,23.24-6.63,23.84-2.66.25-38.95-16.24-40.27-18.7-2.01-3.75,9.89-19.08,13.32-19.94Z"/>
    <path d="M510.42,923.21c.94,1.33,1.2,4.42-1.87,4.05-10.17-1.2-27.47-7.61-38.17-10.71-30.96-8.96-73.19-20.27-102.01-33.03-2.52-1.11-6.15-2.16-7.21-4.98,10.15-.51,20.13,2.73,29.87,5.32,31.75,8.44,72.65,20.34,103.12,31.93,2.25.86,15.75,6.7,16.27,7.43Z"/>
    <path d="M517.65,589.87c3.06-2.57-2.85-56.17,1.6-64.4-17.48,1.53,1.81-9.75,5.02-2.87,2.19,4.69.4,25.24.67,32.34.34,8.87,6.13,35.44-3.89,39.05-4.85,1.75-23.07,1.29-28.38.35-1.91-.34-4.06-1.36-3.59-3.56,1.25-5.92,26.21,1.08,28.57-.91Z"/>
    <path d="M850.46,307.57c11.53-.9,8.57,29.88,4.19,31.24-3.52,1.09-11.71-5.73-12.08-9.29-.31-2.99,4.68-21.7,7.89-21.95Z"/>
    <path d="M966.16,687.64c.31.33-.17,3.13.02,4.29l-77.6,10.04,3.67-4.22,73.92-10.12Z"/>
    <path d="M440.2,539.81c1.51,1.5-7.19,29.31-9.34,31.57-5.82,6.12-5.49-2.74-4.68-7.55,1.14-6.8,5.15-26.48,14.02-24.02Z"/>
    <path d="M369.77,808.2c1.28,1.03,3.01,18.63-3.57,15.78-4.84-2.1-2.34-20.57,3.57-15.78Z"/>
  </g>
</svg>