<?xml version="1.0" encoding="UTF-8"?>
<svg id="_Слой_2" data-name="Слой 2" xmlns="http://www.w3.org/2000/svg" xmlns:xlink="http://www.w3.org/1999/xlink" viewBox="0 0 981.89 981.89">
  <defs>
    <style>
      .cls-1 {
        fill: #ffcf00;
        stroke: #000;
        stroke-width: 3px;
      }

      .cls-1, .cls-2 {
        stroke-miterlimit: 10;
      }

      .cls-2 {
        filter: url(#drop-shadow-1);
        stroke: #574109;
        stroke-width: .75px;
      }
    </style>
    <filter id="drop-shadow-1" x="88.3" y="103.95" width="806" height="753" filterUnits="userSpaceOnUse">
      <feOffset dx="7" dy="9"/>
      <feGaussianBlur result="blur" stdDeviation="5"/>
      <feFlood flood-color="#000" flood-opacity=".2"/>
      <feComposite in2="blur" operator="in"/>
      <feComposite in="SourceGraphic"/>
    </filter>
  </defs>
  <g id="_Слой_2_копия_" data-name="Слой 2 (копия)">
    <rect class="cls-1" x="1.5" y="1.5" width="978.89" height="978.89" rx="232.13" ry="232.13"/>
    <path class="cls-2" d="M330.98,511.05l-.25.16c-18.31,35.6-33.85,74.02-49.67,110.11-10.46,11.2-35.34,16.28-37.85-4.04-2.25-4.92-10.51-3.12-15.01-5.51-5.2-.87-6.87-6.65-12.25-6.28-4.31.4-14.47-5.51-11.72,2.92,8.46,53.83.55,20.04,23.22,33.95,4.94,3.52,11.34,4.7,16.55,7.82,21.53,14.36,54.32-1.96,68,25.77,19.85,31.55,41.2,62.22,61.56,93.43,15.36,25.93,39.05,47.5,69.36,53.62,1.72.78,5.18.21,4.66,2.82-3.72,2.38-7.06,5.25-12.05,5.21-103.72-.17-310.68.06-311.16.06s-1.11-.69-.06-1.18c2.24-.72,28.09-.94,26.75-2.18-59.43-19.94-73.66-108.43-24.85-146.51,8.99-7.26,27.47-7,29.74-19.01.82-4.7,1.94-5.03,6.57-5.14,16.83-2.19,19.74-12.93,19.6-13.93s5.46-2.14,3.85-7.26c-1.42-10.67-3.1-21.3-4.29-31.99-.41-3.87-1.95-6.09-5.56-7.15-7.38-7.16-8.41-17.47-1.97-25.51l-.21-.17.22.16c7.69-7.55,19.77-8.06,27.66-.24,7.03,3.12,16.26,3.53,24.2,3.3,14.43,4.22,10.18,1.58,16.07-10.69,6.36-18.74,12.39-37.59,18.48-56.42,2.15-5.69-4.06-4.28-.9-10.48,14.06-41.82,27.85-83.7,42.26-125.4,1.95-4.57.2-4.57-4.09-5.54-15.27-3.9-8.38-22.11-.8-30.21,9.81-28.63,19.42-57.34,29.17-85.99.99-2.98,3.23-6.05,0-9.19.08-5.49,3.31-11.63,4.73-17.1,2.87-11.34,11.78-5.41,14.08-11.72,4.86-18.99,15.5-34.52,29.46-47.77,27.84-29.08,35.37-40.32,75.77-52.08,24.58-5.59,19.1,28.09,21.84,43.19,19.03,27.85,52.55,47.06,76.63,71.69,2.52,2.21,4.59,5.35,8.96,3.48,13.04,8.18,24.4,21.28,36.72,31.06,35.75,33.67,77.51,62.53,109.93,99.05,6.76,14.83,13.15,29.83,19.7,44.75,3.89,10.62,8.76,23.17,4.61,34.26-.58,26.82,2.56,54.27,3.27,81.26-1.02,5.42,5.03,23.17-3.44,21.55-14.98.67-29.96,1.28-44.94,1.96-5.52-1.07-16.16,4.56-18.39-2.48-5.81-25.47-11.68-50.93-16.81-76.54-1.93-4.88-8.64-4.88-8.44-11.59-2.64-19.13-4.06-38.41-6.34-57.58-55.71-63.76-118.21-123.77-178.01-184.26-27.35,104.99-84.31,199.2-124.56,299.61ZM351.2,805.59v.04c7.15-.09,14.32.18,21.45-.12-27.83-38.97-58.3-76.75-87.38-115.04-2.29-3.53-3.2.42-4.17,2.64-22.05,49.81,8.76,122.05,70.09,112.48ZM178.61,745.56s0-.04,0-.06c89.39,1.42,26.48,2.56,67.6-56.54-28.49-.78-57.2.29-85.77.12-11.81.06-11.82.02-19.42,9.03-9.67,12-13.51,26.75-13.56,41.93-.03,5.54-.16,5.53,5.16,5.53,15.33,0,30.66,0,46,0ZM846.84,746.04c27.77,19.04,19.09,65.76-7.41,81.78-3.15,1.94,12.12-.38,11.89,1.99s-356.9,2.56-355.81.53c1.1-2.03,20.71.16,16.95-2.09-30.8-6.5-54.3-85.69,20-92.05,74.31-6.36,64.66-.23,96.98-.09,2.44.08,4.6.34,3.17-3.16-1.43-3.5-39.16-20.2-32.55-25.63,6.62-5.44,139.3-.38,208.94-.67,15.67.7,28.68-9.62,42.59-15.45,6.09-1.06,5.69-6.99-1.01-5.32-82.81-.13-165.63-.21-248.44-.25q-4.19-.06-4.29-4.03c-.78-39.19,9.21-77.24,17.06-115.33,1.07-5.05,2.28-5.99,7.42-6.22,37.95-1.43,75.87-3.75,113.81-5.58,9.78.72,2.52-4.57,16.32-3.96,4.12-.17,4.44.1,5.3,4.1,2.99,13.82,5.95,27.65,8.97,41.46,1.74,10.94,16.72,5.71,24.69,7.82,27.47,5.04,75.38-7.28,77.27,32.94-1.01,21.98,7.28,46.49-1.88,67.06h.02c-14.9,15.09-91.51,3.55-117.8,7.21-7.73-1.7-3.16,14.71-4.35,19.67.03,5.74-.49,5.21,5.01,5.23,31.89,3.41,69.12-8.83,97.14,10.05ZM675.41,754.87h0c-41.19.45-82.58-.93-123.67.47,14.31,12.44,15.79,33.46,4.42,48.3,73.51.88,147.17.02,220.73.19,13.14-.82,21.46,13.74,35.4,9.55,16.04-3.19,25.86-18.37,23.21-35.36-2.86-20.33-23.39-28.2-44.12-23.18-38.65.06-77.31.04-115.96.04ZM687,627.89c-.09,0-.19,0-.28,0-1,82.23-7.78,60.77,48.52-.52,7.39-12.38-2.67-35-2.69-49.65-1.76-14.55-27.7-4.81-38.04-6.43-4.73.27-5.65,1.28-5.84,6.21-.63,16.79-1.13,33.59-1.68,50.39ZM556.87,527.02c-24.11-64.55-44.78-130.53-68.32-195.18-27.28,67.05-50.45,136.51-76.53,204.29q-1.51,4.37,3.07,4.37c48.6-.35,97.28.55,145.85-.47-.56-4.44-2.86-8.67-4.07-13.02ZM458.94,616.41c-23.14.02-46.27-.01-69.41.07-7.62.03-6.04,0-8.05,5.55-11.2,30.94-22.4,61.88-33.61,92.81-1.44,3.98-1.47,4.05,2.81,4.05,28.3.02,56.6-.06,84.89.07,3.16.01,4.22-1.23,5.13-3.95,7.27-20.36,14.19-40.82,21.24-61.26,37.49-5.94,79.86-.04,118.91-1.97-2.9-12.15-8.07-23.63-12.06-35.46-36.62.02-73.24.05-109.86.07Z"/>
  </g>
</svg>